<mxfile host="app.diagrams.net" modified="2020-09-03T15:30:11.242Z" agent="5.0 (Windows NT 10.0; Win64; x64) AppleWebKit/537.36 (KHTML, like Gecko) Chrome/85.0.4183.83 Safari/537.36" etag="JSaT2sg9oSS2LLBXVF6y" version="13.6.6" type="github">
  <diagram id="b5FTF1bi7E6v5F7amniU" name="Page-1">
    <mxGraphModel dx="1038" dy="548" grid="1" gridSize="10" guides="1" tooltips="1" connect="1" arrows="1" fold="1" page="1" pageScale="1" pageWidth="827" pageHeight="1169" math="0" shadow="0">
      <root>
        <mxCell id="0" />
        <mxCell id="1" parent="0" />
        <mxCell id="7C8X87_ZH4tanWyLU-85-1" value="START" style="ellipse;whiteSpace=wrap;html=1;" vertex="1" parent="1">
          <mxGeometry x="320" y="30" width="120" height="80" as="geometry" />
        </mxCell>
        <mxCell id="7C8X87_ZH4tanWyLU-85-2" value="" style="endArrow=classic;html=1;exitX=0.5;exitY=1;exitDx=0;exitDy=0;" edge="1" parent="1" source="7C8X87_ZH4tanWyLU-85-1">
          <mxGeometry width="50" height="50" relative="1" as="geometry">
            <mxPoint x="390" y="310" as="sourcePoint" />
            <mxPoint x="380" y="160" as="targetPoint" />
          </mxGeometry>
        </mxCell>
        <mxCell id="7C8X87_ZH4tanWyLU-85-3" value="Please think of an &lt;br&gt;integer number between &lt;br&gt;0 and 128" style="shape=display;whiteSpace=wrap;html=1;" vertex="1" parent="1">
          <mxGeometry x="304" y="160" width="166" height="100" as="geometry" />
        </mxCell>
        <mxCell id="7C8X87_ZH4tanWyLU-85-5" value="a = 0, b = 128&lt;br&gt;t = 0" style="verticalLabelPosition=middle;verticalAlign=middle;html=1;shape=hexagon;perimeter=hexagonPerimeter2;arcSize=6;size=0.27;labelPosition=center;align=center;" vertex="1" parent="1">
          <mxGeometry x="293.5" y="310" width="173" height="100" as="geometry" />
        </mxCell>
        <mxCell id="7C8X87_ZH4tanWyLU-85-6" value="" style="endArrow=classic;html=1;entryX=0.549;entryY=0.026;entryDx=0;entryDy=0;entryPerimeter=0;" edge="1" parent="1" target="7C8X87_ZH4tanWyLU-85-5">
          <mxGeometry width="50" height="50" relative="1" as="geometry">
            <mxPoint x="389" y="260" as="sourcePoint" />
            <mxPoint x="439" y="210" as="targetPoint" />
          </mxGeometry>
        </mxCell>
        <mxCell id="7C8X87_ZH4tanWyLU-85-7" value="M = (a+b)/2&lt;br&gt;t = t+1" style="verticalLabelPosition=middle;verticalAlign=middle;html=1;shape=process;whiteSpace=wrap;rounded=1;size=0.14;arcSize=6;labelPosition=center;align=center;" vertex="1" parent="1">
          <mxGeometry x="270.5" y="450" width="233" height="110" as="geometry" />
        </mxCell>
        <mxCell id="7C8X87_ZH4tanWyLU-85-8" value="Is M&amp;nbsp;&lt;br&gt;correct ?" style="strokeWidth=2;html=1;shape=mxgraph.flowchart.decision;whiteSpace=wrap;" vertex="1" parent="1">
          <mxGeometry x="308.5" y="600" width="143" height="140" as="geometry" />
        </mxCell>
        <mxCell id="7C8X87_ZH4tanWyLU-85-9" value="" style="endArrow=classic;html=1;entryX=0.5;entryY=0;entryDx=0;entryDy=0;entryPerimeter=0;" edge="1" parent="1" target="7C8X87_ZH4tanWyLU-85-8">
          <mxGeometry width="50" height="50" relative="1" as="geometry">
            <mxPoint x="380" y="560" as="sourcePoint" />
            <mxPoint x="490" y="570" as="targetPoint" />
          </mxGeometry>
        </mxCell>
        <mxCell id="7C8X87_ZH4tanWyLU-85-10" value="" style="endArrow=classic;html=1;exitX=0.5;exitY=1;exitDx=0;exitDy=0;" edge="1" parent="1" source="7C8X87_ZH4tanWyLU-85-5">
          <mxGeometry width="50" height="50" relative="1" as="geometry">
            <mxPoint x="380" y="440" as="sourcePoint" />
            <mxPoint x="380" y="450" as="targetPoint" />
          </mxGeometry>
        </mxCell>
      </root>
    </mxGraphModel>
  </diagram>
</mxfile>
